<?xml version="1.0" encoding="utf-8"?>
<!DOCTYPE svg PUBLIC "-//W3C//DTD SVG 1.1//EN" "http://www.w3.org/Graphics/SVG/1.1/DTD/svg11.dtd">
<svg style="position: absolute; width: 0; height: 0;" width="0" height="0" version="1.1" xmlns="http://www.w3.org/2000/svg" xmlns:xlink="http://www.w3.org/1999/xlink">
	<defs>
        <symbol id="apple" xmlns="http://www.w3.org/2000/svg"><path d="M16.657 15.1c-.432.958-.638 1.385-1.196 2.231-.776 1.181-1.87 2.654-3.226 2.666-1.205.012-1.515-.783-3.15-.774-1.635.008-1.978.788-3.183.777-1.356-.012-2.392-1.341-3.17-2.524-2.17-3.305-2.397-7.182-1.058-9.243.951-1.467 2.452-2.323 3.865-2.323 1.437 0 2.34.787 3.528.787 1.153 0 1.855-.788 3.518-.788 1.256 0 2.587.684 3.535 1.865-3.106 1.703-2.601 6.14.537 7.326Z" fill="#FDCC0C"/><path d="M1.843 15.1c.432.958.639 1.385 1.196 2.231.776 1.181 1.87 2.654 3.226 2.666 1.205.012 1.515-.783 3.15-.774 1.635.008 1.978.788 3.183.777 1.356-.012 2.392-1.341 3.17-2.524 2.17-3.305 2.397-7.182 1.059-9.243-.952-1.467-2.453-2.323-3.865-2.323-1.438 0-2.34.787-3.53.787-1.152 0-1.854-.788-3.517-.788-1.256 0-2.587.684-3.535 1.865 3.107 1.703 2.602 6.14-.537 7.326ZM12.005 3.374c.682-.875 1.2-2.112 1.011-3.374C11.902.076 10.6.785 9.84 1.709 9.149 2.547 8.579 3.79 8.8 5c1.216.037 2.474-.689 3.205-1.626Z"/></symbol>
        <symbol id="cheeseburger" xmlns="http://www.w3.org/2000/svg"><path d="M1.25 15c0 2.125 1.625 3.75 3.75 3.75h10c2.125 0 3.75-1.625 3.75-3.75H1.25ZM18.75 12.5H1.25C.5 12.5 0 12 0 11.25S.5 10 1.25 10h17.5c.75 0 1.25.5 1.25 1.25s-.5 1.25-1.25 1.25Z" fill="#FD5181"/><path fill-rule="evenodd" clip-rule="evenodd" d="M11.25 0h-2.5c-4.125 0-7.5 3.375-7.5 7.5h17.5c0-4.125-3.375-7.5-7.5-7.5ZM7.5 5c-.75 0-1.25-.5-1.25-1.25S6.75 2.5 7.5 2.5s1.25.5 1.25 1.25S8.25 5 7.5 5Zm5 0c0 .75.5 1.25 1.25 1.25S15 5.75 15 5s-.5-1.25-1.25-1.25-1.25.5-1.25 1.25Z"/>><symbol>
        <symbol id="chicken" xmlns="http://www.w3.org/2000/svg"><path d="M18.235 2.47c-.353-.352-.823-.588-1.176-.588-.118-.47-.236-.823-.588-1.176-.824-.824-2.236-.824-3.06 0-.705.706-.823 1.882-.234 2.706l-2.589 2.47-1.294-1.294-2.588 2.588c-.235-.117-.588-.117-.824-.117C2.588 7.059 0 9.647 0 12.94c0 3.294 2.588 5.882 5.882 5.882 3.294 0 5.883-2.588 5.883-5.882 0-.235 0-.588-.118-.823l2.588-2.589-1.294-1.294 2.47-2.47c.824.588 2 .47 2.707-.236a2.102 2.102 0 0 0 .117-3.058Z"><symbol>
        <symbol id="energy" xmlns="http://www.w3.org/2000/svg"><path d="M10.905 7.866S11.838 2.381 8.032 0A6.713 6.713 0 0 1 5.5 4.859C3.875 6.287.819 9.5.851 12.925A7.856 7.856 0 0 0 5.165 20a4.98 4.98 0 0 1 1.742-3.444 4.066 4.066 0 0 0 1.558-2.731 7.32 7.32 0 0 1 3.875 6.101v.017a7.354 7.354 0 0 0 4.285-6.383c.27-3.218-1.492-7.593-3.056-9.023a8.49 8.49 0 0 1-2.664 3.33Z"><symbol>
    </defs>
</svg>
